<svg xmlns="http://www.w3.org/2000/svg">
<symbol viewBox="0 0 16 16" id="git-icon">
    <path d="M5.40625 12.4375C5.40625 12.375 5.34375 12.3125 5.25 12.3125C5.15625 12.3125 5.09375 12.375 5.09375 12.4375C5.09375 12.5 5.15625 12.5625 5.25 12.5312C5.34375 12.5312 5.40625 12.5 5.40625 12.4375ZM4.4375 12.2812C4.4375 12.3438 4.5 12.4375 4.59375 12.4375C4.65625 12.4688 4.75 12.4375 4.78125 12.375C4.78125 12.3125 4.75 12.25 4.65625 12.2188C4.5625 12.1875 4.46875 12.2188 4.4375 12.2812ZM5.84375 12.25C5.75 12.25 5.6875 12.3125 5.6875 12.4062C5.6875 12.4688 5.78125 12.5 5.875 12.4688C5.96875 12.4375 6.03125 12.4062 6 12.3438C6 12.2812 5.90625 12.2188 5.84375 12.25ZM7.875 0.25C3.5625 0.25 0.25 3.5625 0.25 7.875C0.25 11.3438 2.40625 14.3125 5.53125 15.375C5.9375 15.4375 6.0625 15.1875 6.0625 15C6.0625 14.7812 6.0625 13.7188 6.0625 13.0625C6.0625 13.0625 3.875 13.5312 3.40625 12.125C3.40625 12.125 3.0625 11.2188 2.5625 11C2.5625 11 1.84375 10.5 2.59375 10.5C2.59375 10.5 3.375 10.5625 3.8125 11.3125C4.5 12.5312 5.625 12.1875 6.09375 11.9688C6.15625 11.4688 6.34375 11.125 6.59375 10.9062C4.84375 10.7188 3.0625 10.4688 3.0625 7.46875C3.0625 6.59375 3.3125 6.1875 3.8125 5.625C3.71875 5.40625 3.46875 4.59375 3.90625 3.5C4.53125 3.3125 6.0625 4.34375 6.0625 4.34375C6.6875 4.15625 7.34375 4.09375 8 4.09375C8.6875 4.09375 9.34375 4.15625 9.96875 4.34375C9.96875 4.34375 11.4688 3.28125 12.125 3.5C12.5625 4.59375 12.2812 5.40625 12.2188 5.625C12.7188 6.1875 13.0312 6.59375 13.0312 7.46875C13.0312 10.4688 11.1875 10.7188 9.4375 10.9062C9.71875 11.1562 9.96875 11.625 9.96875 12.375C9.96875 13.4062 9.9375 14.7188 9.9375 14.9688C9.9375 15.1875 10.0938 15.4375 10.5 15.3438C13.625 14.3125 15.75 11.3438 15.75 7.875C15.75 3.5625 12.2188 0.25 7.875 0.25ZM3.28125 11.0312C3.21875 11.0625 3.25 11.1562 3.28125 11.2188C3.34375 11.25 3.40625 11.2812 3.46875 11.25C3.5 11.2188 3.5 11.125 3.4375 11.0625C3.375 11.0312 3.3125 11 3.28125 11.0312ZM2.9375 10.7812C2.90625 10.8438 2.9375 10.875 3 10.9062C3.0625 10.9375 3.125 10.9375 3.15625 10.875C3.15625 10.8438 3.125 10.8125 3.0625 10.7812C3 10.75 2.96875 10.75 2.9375 10.7812ZM3.9375 11.9062C3.90625 11.9375 3.90625 12.0312 4 12.0938C4.0625 12.1562 4.15625 12.1875 4.1875 12.125C4.21875 12.0938 4.21875 12 4.15625 11.9375C4.09375 11.875 4 11.8438 3.9375 11.9062ZM3.59375 11.4375C3.53125 11.4688 3.53125 11.5625 3.59375 11.625C3.65625 11.6875 3.71875 11.7188 3.78125 11.6875C3.8125 11.6562 3.8125 11.5625 3.78125 11.5C3.71875 11.4375 3.65625 11.4062 3.59375 11.4375z"/>
</symbol>

<symbol viewBox="0 0 16 16" id="arrow-right-icon">
    <path d="M6.22363 1.09375C5.91113 1.40625 5.94238 1.875 6.22363 2.1875L10.0049 5.75H1.03613C0.598633 5.75 0.286133 6.09375 0.286133 6.5V7.5C0.286133 7.9375 0.598633 8.25 1.03613 8.25H10.0049L6.22363 11.8438C5.94238 12.1562 5.94238 12.625 6.22363 12.9375L6.91113 13.625C7.22363 13.9062 7.69238 13.9062 7.97363 13.625L14.0674 7.53125C14.3486 7.25 14.3486 6.78125 14.0674 6.46875L7.97363 0.40625C7.69238 0.125 7.22363 0.125 6.91113 0.40625L6.22363 1.09375z"/>
</symbol>

<symbol viewBox="0 0 7 10" id="arrow-dropdown-menu-icon">
    <path d="M6.125 5.21484C6.37109 4.96875 6.37109 4.55859 6.125 4.28516L2.40625 0.566406C2.13281 0.320312 1.72266 0.320312 1.47656 0.566406L0.847656 1.19531C0.601562 1.46875 0.601562 1.87891 0.847656 2.125L3.5 4.77734L0.847656 7.40234C0.601562 7.64844 0.601562 8.05859 0.847656 8.33203L1.47656 8.93359C1.72266 9.20703 2.13281 9.20703 2.40625 8.93359L6.125 5.21484z"/>
</symbol>

<symbol viewBox="0 0 40 40" id="twitter-icon">
    <path d="M27.6771 17.0833C28.3021 16.6145 28.8646 16.052 29.3021 15.3958C28.7396 15.6458 28.0833 15.8333 27.4271 15.8958C28.1146 15.4895 28.6146 14.8645 28.8646 14.0833C28.2396 14.4583 27.5208 14.7395 26.8021 14.8958C26.1771 14.2395 25.3333 13.8645 24.3958 13.8645C22.5833 13.8645 21.1146 15.3333 21.1146 17.1458C21.1146 17.3958 21.1458 17.6458 21.2083 17.8958C18.4896 17.7395 16.0521 16.427 14.4271 14.4583C14.1458 14.927 13.9896 15.4895 13.9896 16.1145C13.9896 17.2395 14.5521 18.2395 15.4583 18.8333C14.9271 18.802 14.3958 18.677 13.9583 18.427V18.4583C13.9583 20.052 15.0833 21.3645 16.5833 21.677C16.3333 21.7395 16.0208 21.802 15.7396 21.802C15.5208 21.802 15.3333 21.7708 15.1146 21.7395C15.5208 23.052 16.7396 23.9895 18.1771 24.0208C17.0521 24.8958 15.6458 25.427 14.1146 25.427C13.8333 25.427 13.5833 25.3958 13.3333 25.3645C14.7708 26.302 16.4896 26.8333 18.3646 26.8333C24.3958 26.8333 27.6771 21.8645 27.6771 17.5208C27.6771 17.3645 27.6771 17.2395 27.6771 17.0833z"/>
</symbol>

<symbol viewBox="0 0 40 40" id="linkedin-icon">
    <path d="M26.3333 13.3333H14.3021C13.7708 13.3333 13.3333 13.802 13.3333 14.3645V26.3333C13.3333 26.8958 13.7708 27.3333 14.3021 27.3333H26.3333C26.8646 27.3333 27.3333 26.8958 27.3333 26.3333V14.3645C27.3333 13.802 26.8646 13.3333 26.3333 13.3333ZM17.5521 25.3333H15.4896V18.677H17.5521V25.3333ZM16.5208 17.7395C15.8333 17.7395 15.3021 17.2083 15.3021 16.552C15.3021 15.8958 15.8333 15.3333 16.5208 15.3333C17.1771 15.3333 17.7083 15.8958 17.7083 16.552C17.7083 17.2083 17.1771 17.7395 16.5208 17.7395ZM25.3333 25.3333H23.2396V22.0833C23.2396 21.3333 23.2396 20.3333 22.1771 20.3333C21.0833 20.3333 20.9271 21.177 20.9271 22.052V25.3333H18.8646V18.677H20.8333V19.5833H20.8646C21.1458 19.052 21.8333 18.4895 22.8333 18.4895C24.9271 18.4895 25.3333 19.8958 25.3333 21.677V25.3333z"/>
</symbol>

<symbol viewBox="0 0 40 40" id="instagram-icon">
    <path d="M20.3333 16.7395C18.3333 16.7395 16.7396 18.3645 16.7396 20.3333C16.7396 22.3333 18.3333 23.927 20.3333 23.927C22.3021 23.927 23.9271 22.3333 23.9271 20.3333C23.9271 18.3645 22.3021 16.7395 20.3333 16.7395ZM20.3333 22.677C19.0521 22.677 17.9896 21.6458 17.9896 20.3333C17.9896 19.052 19.0208 18.0208 20.3333 18.0208C21.6146 18.0208 22.6458 19.052 22.6458 20.3333C22.6458 21.6458 21.6146 22.677 20.3333 22.677ZM24.8958 16.6145C24.8958 16.1458 24.5208 15.7708 24.0521 15.7708C23.5833 15.7708 23.2083 16.1458 23.2083 16.6145C23.2083 17.0833 23.5833 17.4583 24.0521 17.4583C24.5208 17.4583 24.8958 17.0833 24.8958 16.6145ZM27.2708 17.4583C27.2083 16.3333 26.9583 15.3333 26.1458 14.5208C25.3333 13.7083 24.3333 13.4583 23.2083 13.3958C22.0521 13.3333 18.5833 13.3333 17.4271 13.3958C16.3021 13.4583 15.3333 13.7083 14.4896 14.5208C13.6771 15.3333 13.4271 16.3333 13.3646 17.4583C13.3021 18.6145 13.3021 22.0833 13.3646 23.2395C13.4271 24.3645 13.6771 25.3333 14.4896 26.177C15.3333 26.9895 16.3021 27.2395 17.4271 27.302C18.5833 27.3645 22.0521 27.3645 23.2083 27.302C24.3333 27.2395 25.3333 26.9895 26.1458 26.177C26.9583 25.3333 27.2083 24.3645 27.2708 23.2395C27.3333 22.0833 27.3333 18.6145 27.2708 17.4583ZM25.7708 24.4583C25.5521 25.0833 25.0521 25.552 24.4583 25.802C23.5208 26.177 21.3333 26.0833 20.3333 26.0833C19.3021 26.0833 17.1146 26.177 16.2083 25.802C15.5833 25.552 15.1146 25.0833 14.8646 24.4583C14.4896 23.552 14.5833 21.3645 14.5833 20.3333C14.5833 19.3333 14.4896 17.1458 14.8646 16.2083C15.1146 15.6145 15.5833 15.1458 16.2083 14.8958C17.1146 14.5208 19.3021 14.6145 20.3333 14.6145C21.3333 14.6145 23.5208 14.5208 24.4583 14.8958C25.0521 15.1145 25.5208 15.6145 25.7708 16.2083C26.1458 17.1458 26.0521 19.3333 26.0521 20.3333C26.0521 21.3645 26.1458 23.552 25.7708 24.4583z"/>
</symbol>

<symbol viewBox="0 0 40 40" id="google-footer-icon">
    <path d="M28.9583 20.5208C28.9583 20.0208 28.8958 19.6458 28.8333 19.2395H21.4583V21.8958H25.8333C25.6771 23.052 24.5208 25.2395 21.4583 25.2395C18.8021 25.2395 16.6458 23.052 16.6458 20.3333C16.6458 15.9895 21.7708 13.9895 24.5208 16.6458L26.6458 14.6145C25.3021 13.3645 23.5208 12.5833 21.4583 12.5833C17.1458 12.5833 13.7083 16.052 13.7083 20.3333C13.7083 24.6458 17.1458 28.0833 21.4583 28.0833C25.9271 28.0833 28.9583 24.9583 28.9583 20.5208z"/>
</symbol>

<symbol viewBox="0 0 11 3" id="minus-icon">
    <path d="M10 0.375H1C0.578125 0.375 0.25 0.726562 0.25 1.125V1.875C0.25 2.29688 0.578125 2.625 1 2.625H10C10.3984 2.625 10.75 2.29688 10.75 1.875V1.125C10.75 0.726562 10.3984 0.375 10 0.375z"/>
</symbol>

<symbol viewBox="0 0 11 11" id="plus-icon">
    <path d="M10 4.375H6.625V1C6.625 0.601562 6.27344 0.25 5.875 0.25H5.125C4.70312 0.25 4.375 0.601562 4.375 1V4.375H1C0.578125 4.375 0.25 4.72656 0.25 5.125V5.875C0.25 6.29688 0.578125 6.625 1 6.625H4.375V10C4.375 10.4219 4.70312 10.75 5.125 10.75H5.875C6.27344 10.75 6.625 10.4219 6.625 10V6.625H10C10.3984 6.625 10.75 6.29688 10.75 5.875V5.125C10.75 4.72656 10.3984 4.375 10 4.375z"/>
</symbol>

</svg>
